<svg width="192" height="192" viewBox="0 0 192 192" fill="none" xmlns="http://www.w3.org/2000/svg">
  <rect width="192" height="192" rx="24" fill="url(#gradient)"/>
  <defs>
    <linearGradient id="gradient" x1="0%" y1="0%" x2="100%" y2="100%">
      <stop offset="0%" style="stop-color:#667eea;stop-opacity:1" />
      <stop offset="100%" style="stop-color:#764ba2;stop-opacity:1" />
    </linearGradient>
  </defs>
  
  <!-- Snake body -->
  <rect x="32" y="80" width="16" height="16" rx="2" fill="#4ade80"/>
  <rect x="48" y="80" width="16" height="16" rx="2" fill="#4ade80"/>
  <rect x="64" y="80" width="16" height="16" rx="2" fill="#4ade80"/>
  <rect x="80" y="80" width="16" height="16" rx="2" fill="#4ade80"/>
  <rect x="96" y="80" width="16" height="16" rx="2" fill="#4ade80"/>
  <rect x="112" y="80" width="16" height="16" rx="2" fill="#4ade80"/>
  <rect x="128" y="80" width="16" height="16" rx="2" fill="#4ade80"/>
  <rect x="128" y="96" width="16" height="16" rx="2" fill="#4ade80"/>
  <rect x="128" y="112" width="16" height="16" rx="2" fill="#4ade80"/>
  
  <!-- Snake head -->
  <rect x="144" y="112" width="16" height="16" rx="2" fill="#22c55e"/>
  
  <!-- Eyes -->
  <circle cx="148" cy="116" r="1.5" fill="#1f2937"/>
  <circle cx="156" cy="116" r="1.5" fill="#1f2937"/>
  
  <!-- Food -->
  <circle cx="72" cy="56" r="6" fill="#ef4444"/>
</svg>