<svg xmlns="http://www.w3.org/2000/svg" viewBox="0 0 512 512" width="512" height="512">
  <defs>
    <!-- Gradient for the main diamond -->
    <linearGradient id="diamondGradient" x1="0%" y1="0%" x2="100%" y2="100%">
      <stop offset="0%" style="stop-color:#FF8E53;stop-opacity:1" />
      <stop offset="50%" style="stop-color:#FF6B35;stop-opacity:1" />
      <stop offset="100%" style="stop-color:#E55A2B;stop-opacity:1" />
    </linearGradient>
    
    <!-- Glow filter -->
    <filter id="glow" x="-50%" y="-50%" width="200%" height="200%">
      <feGaussianBlur stdDeviation="8" result="coloredBlur"/>
      <feMerge> 
        <feMergeNode in="coloredBlur"/>
        <feMergeNode in="SourceGraphic"/>
      </feMerge>
    </filter>
    
    <!-- Inner glow -->
    <filter id="innerGlow" x="-50%" y="-50%" width="200%" height="200%">
      <feGaussianBlur stdDeviation="4" result="coloredBlur"/>
      <feMerge> 
        <feMergeNode in="coloredBlur"/>
        <feMergeNode in="SourceGraphic"/>
      </feMerge>
    </filter>
  </defs>
  
  <!-- Background circle for contrast -->
  <circle cx="256" cy="256" r="240" fill="#1a1a2e" stroke="#FF6B35" stroke-width="4" opacity="0.9"/>
  
  <!-- Outer glow ring -->
  <circle cx="256" cy="256" r="200" fill="none" stroke="#FF6B35" stroke-width="2" opacity="0.3" filter="url(#glow)"/>
  
  <!-- Main diamond shape (speed boost buff) -->
  <path d="M 256 80 L 380 256 L 256 432 L 132 256 Z" 
        fill="url(#diamondGradient)" 
        stroke="#FF8E53" 
        stroke-width="3" 
        filter="url(#glow)"/>
  
  <!-- Inner diamond highlight -->
  <path d="M 256 120 L 340 256 L 256 392 L 172 256 Z" 
        fill="#FFB366" 
        opacity="0.6" 
        filter="url(#innerGlow)"/>
  
  <!-- Lightning bolt effect in center -->
  <path d="M 240 180 L 280 180 L 260 240 L 290 240 L 220 340 L 250 280 L 220 280 L 240 220 Z" 
        fill="#FFFFFF" 
        opacity="0.9" 
        filter="url(#innerGlow)"/>
  
  <!-- Speed lines for motion effect -->
  <g opacity="0.7">
    <path d="M 100 200 L 180 200" stroke="#FF6B35" stroke-width="4" stroke-linecap="round" opacity="0.8"/>
    <path d="M 110 240 L 170 240" stroke="#FF6B35" stroke-width="3" stroke-linecap="round" opacity="0.6"/>
    <path d="M 120 280 L 160 280" stroke="#FF6B35" stroke-width="2" stroke-linecap="round" opacity="0.4"/>
    
    <path d="M 332 200 L 412 200" stroke="#FF6B35" stroke-width="4" stroke-linecap="round" opacity="0.8"/>
    <path d="M 342 240 L 402 240" stroke="#FF6B35" stroke-width="3" stroke-linecap="round" opacity="0.6"/>
    <path d="M 352 280 L 392 280" stroke="#FF6B35" stroke-width="2" stroke-linecap="round" opacity="0.4"/>
  </g>
  
  <!-- Sparkle effects -->
  <g opacity="0.8">
    <circle cx="180" cy="150" r="3" fill="#FFFFFF"/>
    <circle cx="350" cy="180" r="2" fill="#FFFFFF"/>
    <circle cx="160" cy="320" r="2" fill="#FFFFFF"/>
    <circle cx="380" cy="340" r="3" fill="#FFFFFF"/>
    <circle cx="320" cy="120" r="2" fill="#FFFFFF"/>
    <circle cx="140" cy="380" r="2" fill="#FFFFFF"/>
  </g>
</svg>