<svg xmlns="http://www.w3.org/2000/svg" viewBox="0 0 512 512">
  <defs>
    <linearGradient id="buffGradient" x1="0%" y1="0%" x2="100%" y2="100%">
      <stop offset="0%" style="stop-color:#ff8c00;stop-opacity:1" />
      <stop offset="50%" style="stop-color:#ffa500;stop-opacity:1" />
      <stop offset="100%" style="stop-color:#ff6600;stop-opacity:1" />
    </linearGradient>
    <linearGradient id="lightningGradient" x1="0%" y1="0%" x2="100%" y2="100%">
      <stop offset="0%" style="stop-color:#ffff00;stop-opacity:1" />
      <stop offset="100%" style="stop-color:#ffd700;stop-opacity:1" />
    </linearGradient>
    <filter id="glow">
      <feGaussianBlur stdDeviation="8" result="coloredBlur"/>
      <feMerge> 
        <feMergeNode in="coloredBlur"/>
        <feMergeNode in="SourceGraphic"/> 
      </feMerge>
    </filter>
    <filter id="strongGlow">
      <feGaussianBlur stdDeviation="12" result="coloredBlur"/>
      <feMerge> 
        <feMergeNode in="coloredBlur"/>
        <feMergeNode in="SourceGraphic"/> 
      </feMerge>
    </filter>
  </defs>
  
  <!-- Background -->
  <rect width="512" height="512" fill="#1a1a1a"/>
  
  <!-- Outer glow effect -->
  <polygon points="256,80 350,256 256,432 162,256" fill="#ff8c00" opacity="0.3" filter="url(#strongGlow)"/>
  
  <!-- Main diamond shape -->
  <polygon points="256,100 330,256 256,412 182,256" fill="url(#buffGradient)" filter="url(#glow)"/>
  
  <!-- Inner highlight -->
  <polygon points="256,120 310,256 256,392 202,256" fill="#ffaa00" opacity="0.6"/>
  
  <!-- Lightning bolt -->
  <polygon points="240,180 280,180 260,220 290,220 250,320 270,280 240,280 260,240 240,180" fill="url(#lightningGradient)" filter="url(#glow)"/>
  
  <!-- Speed lines -->
  <line x1="120" y1="200" x2="160" y2="200" stroke="#ff8c00" stroke-width="6" opacity="0.8" stroke-linecap="round"/>
  <line x1="110" y1="230" x2="150" y2="230" stroke="#ff8c00" stroke-width="4" opacity="0.6" stroke-linecap="round"/>
  <line x1="130" y1="260" x2="170" y2="260" stroke="#ff8c00" stroke-width="6" opacity="0.8" stroke-linecap="round"/>
  <line x1="120" y1="290" x2="160" y2="290" stroke="#ff8c00" stroke-width="4" opacity="0.6" stroke-linecap="round"/>
  <line x1="110" y1="320" x2="150" y2="320" stroke="#ff8c00" stroke-width="6" opacity="0.8" stroke-linecap="round"/>
  
  <line x1="352" y1="200" x2="392" y2="200" stroke="#ff8c00" stroke-width="6" opacity="0.8" stroke-linecap="round"/>
  <line x1="362" y1="230" x2="402" y2="230" stroke="#ff8c00" stroke-width="4" opacity="0.6" stroke-linecap="round"/>
  <line x1="342" y1="260" x2="382" y2="260" stroke="#ff8c00" stroke-width="6" opacity="0.8" stroke-linecap="round"/>
  <line x1="352" y1="290" x2="392" y2="290" stroke="#ff8c00" stroke-width="4" opacity="0.6" stroke-linecap="round"/>
  <line x1="362" y1="320" x2="402" y2="320" stroke="#ff8c00" stroke-width="6" opacity="0.8" stroke-linecap="round"/>
</svg>