<svg xmlns="http://www.w3.org/2000/svg" viewBox="0 0 192 192" width="192" height="192">
  <defs>
    <!-- Gradient for the main diamond -->
    <linearGradient id="diamondGradient192" x1="0%" y1="0%" x2="100%" y2="100%">
      <stop offset="0%" style="stop-color:#FF8E53;stop-opacity:1" />
      <stop offset="50%" style="stop-color:#FF6B35;stop-opacity:1" />
      <stop offset="100%" style="stop-color:#E55A2B;stop-opacity:1" />
    </linearGradient>
    
    <!-- Glow filter -->
    <filter id="glow192" x="-50%" y="-50%" width="200%" height="200%">
      <feGaussianBlur stdDeviation="3" result="coloredBlur"/>
      <feMerge> 
        <feMergeNode in="coloredBlur"/>
        <feMergeNode in="SourceGraphic"/>
      </feMerge>
    </filter>
  </defs>
  
  <!-- Background -->
  <rect width="192" height="192" fill="#1a1a2e" rx="24"/>
  
  <!-- Outer glow ring -->
  <circle cx="96" cy="96" r="75" fill="none" stroke="#FF6B35" stroke-width="2" opacity="0.3" filter="url(#glow192)"/>
  
  <!-- Main diamond shape -->
  <path d="M 96 30 L 142 96 L 96 162 L 50 96 Z" 
        fill="url(#diamondGradient192)" 
        stroke="#FF8E53" 
        stroke-width="2" 
        filter="url(#glow192)"/>
  
  <!-- Inner diamond highlight -->
  <path d="M 96 45 L 127 96 L 96 147 L 65 96 Z" 
        fill="#FFB366" 
        opacity="0.6"/>
  
  <!-- Lightning bolt effect in center -->
  <path d="M 90 67 L 105 67 L 98 90 L 109 90 L 82 127 L 94 105 L 82 105 L 90 82 Z" 
        fill="#FFFFFF" 
        opacity="0.9"/>
  
  <!-- Speed lines for motion effect -->
  <g opacity="0.7">
    <path d="M 38 75 L 68 75" stroke="#FF6B35" stroke-width="3" stroke-linecap="round" opacity="0.8"/>
    <path d="M 42 90 L 64 90" stroke="#FF6B35" stroke-width="2" stroke-linecap="round" opacity="0.6"/>
    <path d="M 45 105 L 60 105" stroke="#FF6B35" stroke-width="2" stroke-linecap="round" opacity="0.4"/>
    
    <path d="M 124 75 L 154 75" stroke="#FF6B35" stroke-width="3" stroke-linecap="round" opacity="0.8"/>
    <path d="M 128 90 L 150 90" stroke="#FF6B35" stroke-width="2" stroke-linecap="round" opacity="0.6"/>
    <path d="M 132 105 L 147 105" stroke="#FF6B35" stroke-width="2" stroke-linecap="round" opacity="0.4"/>
  </g>
  
  <!-- Sparkle effects -->
  <g opacity="0.8">
    <circle cx="68" cy="56" r="2" fill="#FFFFFF"/>
    <circle cx="131" cy="67" r="1.5" fill="#FFFFFF"/>
    <circle cx="60" cy="120" r="1.5" fill="#FFFFFF"/>
    <circle cx="142" cy="127" r="2" fill="#FFFFFF"/>
    <circle cx="120" cy="45" r="1.5" fill="#FFFFFF"/>
    <circle cx="53" cy="142" r="1.5" fill="#FFFFFF"/>
  </g>
</svg>